<?xml version="1.0" standalone="no"?><!DOCTYPE svg PUBLIC "-//W3C//DTD SVG 1.1//EN" "http://www.w3.org/Graphics/SVG/1.1/DTD/svg11.dtd"><svg t="1754987943613" class="icon" viewBox="0 0 1814 1024" version="1.1" xmlns="http://www.w3.org/2000/svg" p-id="71446" width="85.03125" height="48" xmlns:xlink="http://www.w3.org/1999/xlink"><path d="M1336.324835 923.437205h-1131.331445-0.96695-0.96695s-0.96695 0-0.96695 0.96695c0 0-0.96695 0-0.96695 0.96695l-0.96695 0.96695s0 0.96695-0.96695 0.96695v3.8678c0 0.96695 0.96695 0.96695 0.96695 1.933899 0.96695 0.96695 0.96695 0.96695 1.9339 0.96695h1134.232295s0.96695 0 0.96695-0.96695c0 0 0.96695 0 0.96695-0.96695l0.96695-0.966949s0-0.96695 0.96695-0.96695 0-0.96695 0-0.96695V928.271955v-1.9339c0-0.96695-0.96695-0.96695-0.96695-1.9339-0.96695-0.96695-0.96695-0.96695-1.9339-0.96695h-0.96695z m208.86119 0h-165.348442-0.96695-0.96695s-0.96695 0-0.96695 0.96695c0 0-0.96695 0-0.96695 0.96695l-0.96695 0.96695s0 0.96695-0.96695 0.96695v3.8678c0 0.96695 0.96695 0.96695 0.96695 1.933899 0.96695 0.96695 0.96695 0.96695 1.9339 0.96695H1546.152975s0.96695 0 0.966949-0.96695c0 0 0.96695 0 0.96695-0.96695l0.96695-0.966949s0-0.96695 0.96695-0.96695 0-0.96695 0-0.96695V928.271955v-1.9339c0-0.96695-0.96695-0.96695-0.96695-1.9339-0.96695-0.96695-0.96695-0.96695-1.9339-0.96695h-1.933899zM1197.084042 961.148253H1086.851747c-0.96695 0-0.96695 0.96695-1.9339 0.96695-0.96695 0.96695-0.96695 0.96695-0.96695 1.9339v3.8678s0 0.96695 0.96695 0.96695c0 0 0 0.96695 0.96695 0.96695l0.96695 0.96695s0.96695 0 0.96695 0.96695H1199.984891c0.96695 0 0.96695-0.96695 1.9339-0.96695 0.96695-0.96695 0.96695-0.96695 0.96695-1.9339v-1.9339-0.96695-0.96695s0-0.96695-0.96695-0.96695c0 0 0-0.96695-0.96695-0.96695l-0.96695-0.96695s-0.96695 0-0.96695-0.96695h-0.966949-0.96695z m-130.538244 0h-16.438149c-0.96695 0-0.96695 0.96695-1.9339 0.96695-0.96695 0.96695-0.96695 0.96695-0.96695 1.9339v3.8678s0 0.96695 0.96695 0.96695c0 0 0 0.96695 0.96695 0.96695l0.96695 0.96695s0.96695 0 0.96695 0.96695h18.372049c0.96695 0 0.96695-0.96695 1.9339-0.96695 0.96695-0.96695 0.96695-0.96695 0.96695-1.9339v-1.9339-0.96695-0.96695s0-0.96695-0.96695-0.96695c0 0 0-0.96695-0.96695-0.96695l-0.96695-0.96695s-0.96695 0-0.96695-0.96695h-0.96695-0.96695z m-30.942399 0H672.030217c-0.96695 0-0.96695 0.96695-1.9339 0.96695-0.96695 0.96695-0.96695 0.96695-0.96695 1.9339v3.8678s0 0.96695 0.96695 0.96695c0 0 0 0.96695 0.96695 0.96695l0.96695 0.96695s0.96695 0 0.96695 0.96695h364.540132c0.96695 0 0.96695-0.96695 1.9339-0.96695 0.96695-0.96695 0.96695-0.96695 0.96695-1.9339v-1.9339-0.96695-0.96695s0-0.96695-0.96695-0.96695c0 0 0-0.96695-0.96695-0.96695l-0.96695-0.96695s-0.96695 0-0.96695-0.96695h-0.96695z m-398.38338 0.96695h-83.157696c-0.96695 0-0.96695 0.96695-1.9339 0.96695-0.96695 0.96695-0.96695 0.96695-0.96695 1.9339v3.8678s0 0.96695 0.96695 0.96695c0 0 0 0.96695 0.96695 0.96695l0.96695 0.96695s0.96695 0 0.96695 0.96695H640.120869c0.96695 0 0.96695-0.96695 1.9339-0.96695 0.96695-0.96695 0.96695-0.96695 0.96695-1.9339v-1.9339-0.96695-0.96695s0-0.96695-0.96695-0.96695c0 0 0-0.96695-0.96695-0.96695l-0.96695-0.96695s-0.96695 0-0.96695-0.96695H638.186969c0 0.96695 0 0-0.96695 0z" fill="#404D68" p-id="71447"></path><path d="M614.98017 175.017941h523.119924c7.7356 0 14.504249 4.83475 16.43815 11.6034l140.207743 426.424929c0.96695 1.9339 0.96695 3.8678 0.96695 5.8017v292.985835c0 9.6695-7.7356 17.405099-17.405099 17.4051H474.772427c-9.6695 0-17.405099-7.7356-17.405099-17.4051V618.84797c0-1.9339 0-3.8678 0.96695-5.8017l140.207743-426.424929c2.90085-6.76865 9.6695-11.603399 16.438149-11.6034" fill="#FFFFFF" p-id="71448"></path><path d="M591.773371 184.687441L451.565628 611.11237c-0.96695 2.90085-0.96695 4.83475-0.96695 7.7356v292.985835c0 6.76865 1.9339 12.570349 6.76865 17.4051 4.83475 4.83475 10.636449 6.76865 17.405099 6.768649h803.535411c6.76865 0 12.570349-1.9339 17.405099-6.768649 4.83475-4.83475 6.76865-10.636449 6.768649-17.4051V618.84797c0-2.90085 0-4.83475-0.96695-7.7356l-140.207743-426.424929c-1.9339-4.83475-4.83475-8.70255-8.702549-12.570349-3.8678-2.90085-8.70255-4.83475-14.50425-4.83475H614.98017c-5.8017 0-9.6695 1.9339-14.504249 4.83475-3.8678 2.90085-6.76865 7.7356-8.70255 12.570349zM465.102927 618.84797c0-0.96695 0-1.9339 0.96695-2.90085l140.207743-426.424929c1.9339-4.83475 4.83475-6.76865 9.6695-6.76865h523.119924c4.83475 0 7.7356 1.9339 9.6695 6.76865l140.207743 426.424929c0 0.96695 0.96695 1.9339 0.96695 2.90085v292.985835c0 2.90085-0.96695 4.83475-2.90085 6.76865-1.9339 1.9339-4.83475 2.90085-6.76865 2.90085H474.772427c-2.90085 0-4.83475-0.96695-6.76865-2.90085-1.9339-1.9339-2.90085-4.83475-2.90085-6.76865V618.84797z" fill="#404D68" p-id="71449"></path><path d="M1070.413598 237.869688l93.794145 323.928235c1.9339 7.7356-3.8678 14.504249-11.603399 14.504249h-109.265345v9.669499c0 2.90085 0 5.8017-0.96695 8.70255 0 2.90085-0.96695 5.8017-0.96695 7.7356 0 2.90085-0.96695 5.8017-0.96695 7.735599-0.96695 2.90085-0.96695 5.8017-1.9339 7.7356-0.96695 2.90085-0.96695 5.8017-1.9339 7.735599-0.96695 2.90085-1.9339 4.83475-2.900849 7.7356-0.96695 2.90085-1.9339 4.83475-2.90085 7.7356-0.96695 2.90085-1.9339 4.83475-2.90085 7.735599-0.96695 2.90085-1.9339 4.83475-3.8678 7.7356s-2.90085 4.83475-3.8678 6.76865c-0.96695 1.9339-2.90085 4.83475-4.83475 6.768649-1.9339 1.9339-2.90085 4.83475-4.834749 6.76865-1.9339 1.9339-2.90085 4.83475-4.83475 6.76865l-5.8017 5.801699-5.8017 5.8017-5.801699 5.8017-5.8017 5.801699c-1.9339 1.9339-3.8678 3.8678-6.76865 4.83475-1.9339 1.9339-4.83475 2.90085-6.768649 4.83475-1.9339 1.9339-4.83475 2.90085-6.76865 4.83475-1.9339 0.96695-4.83475 2.90085-6.76865 3.8678s-4.83475 2.90085-7.735599 3.867799c-2.90085 0.96695-4.83475 1.9339-7.7356 2.90085-2.90085 0.96695-4.83475 1.9339-7.7356 2.90085-2.90085 0.96695-4.83475 1.9339-7.735599 2.90085-2.90085 0.96695-4.83475 1.9339-7.7356 1.9339-2.90085 0.96695-5.8017 0.96695-7.735599 1.9339-2.90085 0.96695-5.8017 0.96695-7.7356 0.96695-2.90085 0-5.8017 0.96695-7.7356 0.96695-2.90085 0-5.8017 0-8.702549 0.96695h-17.405099c-2.90085 0-5.8017 0-8.70255-0.96695-2.90085 0-5.8017-0.96695-7.7356-0.96695-2.90085 0-5.8017-0.96695-7.735599-0.96695-2.90085-0.96695-5.8017-0.96695-7.7356-1.9339-2.90085-0.96695-5.8017-0.96695-7.735599-1.9339-2.90085-0.96695-4.83475-1.9339-7.7356-2.90085-2.90085-0.96695-4.83475-1.9339-7.7356-2.90085-2.90085-0.96695-4.83475-1.9339-7.735599-2.90085-2.90085-0.96695-4.83475-1.9339-7.7356-3.867799-2.90085-0.96695-4.83475-2.90085-6.76865-3.8678-1.9339-0.96695-4.83475-2.90085-6.768649-4.83475-1.9339-1.9339-4.83475-2.90085-6.76865-4.83475-1.9339-1.9339-4.83475-2.90085-6.76865-4.83475l-5.801699-5.801699-5.8017-5.8017-5.8017-5.8017-5.801699-5.801699c-1.9339-1.9339-3.8678-3.8678-4.83475-6.76865-1.9339-1.9339-2.90085-4.83475-4.83475-6.76865-1.9339-1.9339-2.90085-4.83475-4.83475-6.768649-0.96695-1.9339-2.90085-4.83475-3.8678-6.76865-0.96695-2.90085-2.90085-4.83475-3.867799-7.7356-0.96695-2.90085-1.9339-4.83475-2.90085-7.735599s-1.9339-4.83475-2.90085-7.7356-1.9339-4.83475-2.90085-7.7356c-0.96695-2.90085-1.9339-4.83475-1.9339-7.735599-0.96695-2.90085-0.96695-5.8017-1.9339-7.7356-0.96695-2.90085-0.96695-5.8017-0.96695-7.735599 0-2.90085-0.96695-5.8017-0.96695-7.7356 0-2.90085 0-5.8017-0.96695-8.70255v-8.702549-0.96695h-106.364494c-7.7356 0-13.537299-7.7356-11.6034-14.504249l93.794146-323.928235c0.96695-4.83475 5.8017-8.70255 11.603399-8.702549h363.573182c3.8678 0.96695 8.70255 3.8678 10.63645 8.702549z" fill="#ABCCFF" p-id="71450"></path><path d="M1077.182247 235.935788l93.794146 322.961285c1.9339 5.8017 0.96695 11.603399-2.90085 16.438149s-8.70255 7.7356-15.471199 7.7356h-109.265345v-7.7356h7.7356v0.96695c0 22.239849-3.8678 43.512748-12.57035 64.785647-8.70255 22.239849-22.239849 42.545798-38.677998 59.950897-17.405099 17.405099-36.744098 29.975449-59.950897 38.677998-20.305949 7.7356-42.545798 12.570349-64.785647 12.570349s-43.512748-3.8678-64.785647-12.570349c-22.239849-8.70255-42.545798-22.239849-59.950897-38.677998-17.405099-17.405099-29.975449-36.744098-38.677998-59.950897-8.70255-20.305949-12.570349-42.545798-12.570349-64.785647v-1.9339h7.735599v7.7356h-106.364494c-5.8017 0-11.603399-2.90085-15.4712-7.7356-3.8678-4.83475-4.83475-10.636449-2.900849-16.438149L676.864967 235.935788c0.96695-3.8678 3.8678-7.7356 6.76865-9.669499 2.90085-2.90085 6.76865-3.8678 11.603399-3.8678h363.573182c3.8678 0 7.7356 0.96695 11.6034 3.8678 2.90085 2.90085 5.8017 5.8017 6.768649 9.669499z m-14.504249 4.83475c-0.96695-1.9339-1.9339-2.90085-3.8678-2.90085H695.237016c-1.9339 0-3.8678 0.96695-3.8678 2.90085l-93.794145 323.928234c0 0.96695 0 2.90085 0.96695 3.8678 0.96695 0.96695 1.9339 1.9339 3.8678 1.9339h108.298394s0.96695 0 0.96695 0.96695l0.96695 0.96695 0.96695 0.96695 0.96695 0.96695V577.269122c0 20.305949 3.8678 40.611898 11.6034 58.983947 7.7356 20.305949 20.305949 38.677998 35.777148 54.149197 15.471199 15.471199 33.843248 28.041549 54.149197 35.777149 19.338999 7.7356 38.677998 11.603399 58.983947 11.603399 20.305949 0 40.611898-3.8678 58.983947-11.603399 20.305949-7.7356 38.677998-20.305949 54.149198-35.777149 15.471199-15.471199 28.041549-33.843248 35.777148-54.149197 7.7356-19.338999 11.603399-38.677998 11.603399-58.983947v-1.9339-0.96695-0.96695s0-0.96695 0.96695-0.96695l0.96695-0.96695 0.96695-0.96695 0.96695-0.96695H1150.670444c0.96695 0 2.90085-0.96695 3.8678-1.9339 0.96695-0.96695 0.96695-2.90085 0.96695-3.8678l-92.827196-322.961284z" fill="#3E494F" p-id="71451"></path><path d="M613.04627 192.423041l-57.050047 1.9339 50.281397-27.074599c13.537299-7.7356 21.272899-21.272899 21.272899-36.744098l-1.9339-57.050048 27.074599 50.281398c7.7356 13.537299 21.272899 21.272899 36.744098 21.272899l57.050048-1.9339-50.281398 27.074599c-13.537299 7.7356-21.272899 21.272899-21.272899 36.744098l1.9339 57.050047-27.074599-50.281397c-6.76865-13.537299-21.272899-21.272899-36.744098-21.272899" fill="#FFFFFF" p-id="71452"></path><path d="M645.922568 215.629839l27.074599 50.281398s0 0.96695 0.96695 0.96695 0.96695 0.96695 0.96695 0.96695h4.83475l0.96695-0.96695 0.96695-0.96695c0.96695-0.96695 0-0.96695 0-0.96695v-0.96695-0.96695l-1.9339-57.050047c0-6.76865 0.96695-13.537299 4.83475-19.338999 3.8678-5.8017 7.7356-10.636449 14.504249-13.537299l50.281397-27.074599s0.96695 0 0.96695-0.96695l0.96695-0.96695v-0.96695-0.96695-0.96695-0.96695-0.96695l-0.96695-0.96695-0.96695-0.96695h-0.96695-0.966949-0.96695l-57.050048 1.9339c-6.76865 0-13.537299-0.96695-19.338999-4.83475-5.8017-3.8678-10.636449-7.7356-13.537299-14.504249l-27.074599-50.281397s0-0.96695-0.96695-0.96695l-0.96695-0.96695h-0.96695H623.68272c-0.96695 0-0.96695 0.96695-0.96695 0.96695l-0.96695 0.96695v1.9339l1.9339 57.050047c0 6.76865-0.96695 13.537299-4.83475 19.338999-3.8678 5.8017-7.7356 10.636449-14.50425 13.537299l-50.281397 27.074599s-0.96695 0-0.96695 0.96695l-0.96695 0.96695v4.834749l0.96695 0.96695 0.96695 0.96695H556.963173l57.050047-1.9339c6.76865 0 13.537299 0.96695 19.338999 4.83475 4.83475 4.83475 9.6695 9.6695 12.570349 15.471199z m26.107649 29.975449l-0.96695-38.677998c0-8.70255 1.9339-16.438149 5.8017-24.173749 3.8678-7.7356 9.6695-12.570349 17.405099-17.405099l33.843248-18.372049-38.677998 0.96695c-8.70255 0-16.438149-1.9339-24.173748-5.8017-7.7356-3.8678-12.570349-9.6695-17.4051-17.405099l-18.372049-33.843248 0.96695 38.677998c0 8.70255-1.9339 16.438149-5.8017 24.173748-3.8678 7.7356-9.6695 12.570349-17.405099 17.4051l-33.843248 18.372049 38.677998-0.96695c8.70255 0 16.438149 1.9339 24.173749 5.8017 7.7356 3.8678 12.570349 9.6695 17.405099 17.405099l18.372049 33.843248z" fill="#404D68" p-id="71453"></path><path d="M785.163362 515.384325l13.537299-47.380548 1.9339 49.314448c0.96695 16.438149 11.603399 29.975449 27.074599 34.810198l47.380547 13.537299-49.314447 1.9339c-16.438149 0.96695-29.975449 11.603399-34.810199 27.074599l-14.504249 47.380548-1.9339-49.314448c-0.96695-16.438149-11.603399-29.975449-27.074598-34.810198l-47.380548-13.5373 49.314447-1.933899c17.405099-0.96695 31.909348-11.603399 35.777149-27.074599" fill="#FFFFFF" p-id="71454"></path><path d="M750.353163 537.624174l-49.314447 1.9339h-0.96695s-0.96695 0-0.96695 0.96695l-0.96695 0.96695s0 0.96695-0.96695 0.96695v4.834749l0.96695 0.96695h1.9339l47.380548 14.50425c6.76865 1.9339 12.570349 5.8017 16.438149 11.603399 4.83475 5.8017 6.76865 11.603399 6.768649 19.338999l1.9339 49.314448v0.96695s0 0.96695 0.96695 0.96695l0.96695 0.966949s0.96695 0 0.96695 0.96695h1.9339c0.96695 0 0.96695 0 1.9339-0.96695 0.96695 0 0.96695-0.96695 0.96695-0.966949s0.96695-0.96695 0.96695-1.9339l13.537299-47.380548c1.9339-6.76865 5.8017-12.570349 11.6034-16.438149 5.8017-4.83475 11.603399-6.76865 19.338999-6.76865l49.314447-1.9339h0.96695s0.96695 0 0.96695-0.96695l0.96695-0.96695s0-0.96695 0.96695-0.96695v-0.96695-0.96695-0.96695-0.96695s0-0.96695-0.96695-0.966949l-0.96695-0.96695h-0.96695-0.96695l-47.380547-13.5373c-6.76865-1.9339-12.570349-5.8017-16.43815-11.603399-4.83475-5.8017-6.76865-11.603399-6.768649-19.338999l-1.9339-49.314448v-0.96695s0-0.96695-0.96695-0.96695l-0.96695-0.96695s-0.96695 0-0.96695-0.96695h-0.96695-0.96695-0.96695-0.96695s-0.96695 0-0.96695 0.96695l-0.96695 0.96695v1.9339l-13.537299 47.380548c-1.9339 6.76865-5.8017 12.570349-11.6034 16.438149-4.83475 3.8678-10.636449 5.8017-18.372049 5.8017z m-22.239849 9.669499l22.239849 6.76865c8.70255 2.90085 15.471199 7.7356 21.272899 14.504249 5.8017 6.76865 8.70255 15.471199 8.70255 24.173749l0.96695 23.206799 6.76865-22.239849c2.90085-8.70255 7.7356-15.471199 14.504249-21.272899 6.76865-5.8017 15.471199-8.70255 24.173749-8.70255l23.206798-0.966949-22.239848-6.76865c-8.70255-2.90085-15.471199-7.7356-21.272899-14.504249-5.8017-6.76865-8.70255-15.471199-8.70255-24.173749l-0.96695-23.206799-6.76865 22.239849c-2.90085 8.70255-7.7356 15.471199-14.504249 21.272899-6.76865 5.8017-15.471199 8.70255-24.173749 8.702549l-23.206799 0.96695z" fill="#404D68" p-id="71455"></path><path d="M983.388102 398.383381l-7.7356-26.107649 14.50425 23.206799c5.8017 9.6695 18.372049 14.504249 29.008498 11.603399l26.107649-7.735599-23.206799 14.504249c-9.6695 5.8017-14.504249 18.372049-11.603399 29.008498l7.735599 26.107649-14.504249-23.206799c-5.8017-9.6695-18.372049-14.504249-29.008499-11.603399l-26.107648 7.735599 23.206799-14.504249c9.6695-5.8017 14.504249-18.372049 11.603399-29.008498" fill="#FFFFFF" p-id="71456"></path><path d="M969.850803 423.524079l-23.206799 14.50425-0.96695 0.96695-0.96695 0.96695v3.867799l0.96695 0.96695 0.96695 0.96695h3.8678l26.107648-7.735599c4.83475-0.96695 8.70255-0.96695 13.5373 0.96695 4.83475 1.9339 7.7356 4.83475 10.636449 8.702549l14.504249 23.206799 0.96695 0.96695 0.96695 0.96695h1.9339c0.96695 0 0.96695 0 1.9339-0.96695l0.96695-0.96695c0-0.96695 0-0.96695 0.96695-1.9339v-1.9339l-7.7356-26.107649c-0.96695-4.83475-0.96695-8.70255 0.96695-13.537299 1.9339-4.83475 4.83475-7.7356 8.70255-10.636449l23.206799-14.50425 0.96695-0.96695 0.96695-0.96695v-0.966949-0.96695-0.96695-0.96695l-0.96695-0.96695h-0.96695-0.96695-0.96695-0.96695-0.96695l-26.107649 7.735599c-4.83475 0.96695-8.70255 0.96695-13.537299-0.96695-4.83475-1.9339-7.7356-4.83475-10.63645-8.702549l-14.504249-23.206799-0.96695-0.96695-0.96695-0.96695h-0.96695-0.96695-0.96695-0.96695l-0.966949 0.96695-0.96695 0.96695v3.8678l7.735599 26.107648c0.96695 4.83475 0.96695 8.70255-0.96695 13.5373-1.9339 3.8678-4.83475 6.76865-8.702549 9.669499z m5.801699 6.76865c5.8017-0.96695 11.603399-0.96695 17.4051 0.96695 5.8017 1.9339 10.636449 5.8017 13.537299 10.636449-0.96695-5.8017-0.96695-11.603399 0.96695-17.405099 1.9339-5.8017 5.8017-10.636449 10.636449-13.537299-5.8017 0.96695-11.603399 0.96695-17.405099-0.96695-5.8017-1.9339-10.636449-5.8017-13.537299-10.636449 0.96695 5.8017 0.96695 11.603399-0.96695 17.405099-1.9339 4.83475-5.8017 9.6695-10.63645 13.537299zM1493.937677 189.522191l-51.248347-29.975449-29.975449 51.248348 51.248348 29.975448 29.975448-51.248347z m-69.620397 19.338999l21.272899-36.744098 36.744099 21.272899-21.272899 36.744098-36.744099-21.272899zM1768.551464 464.135977l-13.5373-49.314447-49.314447 13.537299 13.537299 49.314448 49.314448-13.5373z m-52.215298-30.942398l32.876299-8.70255 8.702549 32.876299-32.876298 8.702549-8.70255-32.876298zM1592.566572 671.063267L1576.128423 609.17847l-61.884797 16.438149 16.438149 61.884797 61.884797-16.438149z m-67.686496-38.677998l45.446647-12.570349 12.57035 45.446648-45.446648 12.570349-12.570349-45.446648zM88.959396 635.286119l-12.57035-47.380548L29.008499 600.475921 42.545798 647.856468l46.413598-12.570349z m-49.314448-29.008499l29.975449-7.735599 8.702549 29.975448-29.975448 8.70255-8.70255-30.942399zM320.060434 376.143532l-16.438149-59.950897-59.950897 16.438149 16.438149 59.950897 59.950897-16.438149zM254.307838 338.432483l42.545798-11.603399 11.603399 42.545798-42.545798 11.603399-11.603399-42.545798z" fill="#404D68" p-id="71457"></path></svg>