<svg xmlns="http://www.w3.org/2000/svg" xmlns:xlink="http://www.w3.org/1999/xlink" fill="none" version="1.1" width="106.455078125" height="116.96334838867188" viewBox="0 0 106.455078125 116.96334838867188"><g><g><path d="M82.5540625,57.475677490234396C88.1190625,63.320677490234374,93.6490625,69.16567749023437,99.2140625,75.01067749023437C96.9040625,88.24067749023438,94.6290625,101.43567749023438,92.3190625,114.66567749023437C86.0890625,111.69067749023438,79.8590625,108.71567749023438,73.6640625,105.77567749023437C76.6040625,89.64067749023437,79.5790625,73.54067749023437,82.5540625,57.475677490234396C82.5540625,57.475677490234396,82.5540625,57.475677490234396,82.5540625,57.475677490234396Z" fill="#161616" fill-opacity="1"/><path d="M81.9261325,55.36293749023437L72.6805825,105.59467749023437L72.5418125,106.34857749023438L93.0785625,116.13537749023438L96.7517625,95.00967749023437L100.2854625,74.68647749023438L91.6093625,65.55469749023437L81.9261325,55.36293749023437ZM74.7863125,105.20277749023438L91.5595625,113.19597749023438L94.7812625,94.66707749023438L98.1426625,75.33487749023438L90.1593625,66.93227749023437L83.1819925,59.58841749023438L74.7863125,105.20277749023438Z" fill-rule="evenodd" fill="#161616" fill-opacity="1"/></g><g><path d="M2.5449218750000098,107.59567504882813C6.289921875,110.39567504882812,10.034921875,113.16067504882812,13.779921875,115.96067504882812C39.854921875,115.75067504882813,65.894921875,115.54067504882812,91.969921875,115.33067504882813C90.114921875,108.78567504882812,88.294921875,102.24067504882812,86.439921875,95.66067504882812C58.474921875,99.65067504882812,30.509921875,103.60567504882812,2.5449218750000098,107.59567504882813C2.5449218750000098,107.59567504882813,2.5449218750000098,107.59567504882813,2.5449218750000098,107.59567504882813Z" fill="#161616" fill-opacity="1"/><path d="M87.165921875,94.54732504882813L86.299121875,94.67064304882813L44.372221875,100.63521504882813L0.00006187500000010004,106.94767504882813L7.565331875,112.58037504882813L13.452121875,116.96337504882813L52.880321875,116.64567504882812L93.288621875,116.32007504882813L91.932521875,111.52047504882813L87.165921875,94.54732504882813ZM85.713921875,96.77402504882812L44.653821875,102.61528504882813L5.089781875,108.24367504882812L8.759731875,110.97617504882813L14.107721875,114.95797504882813L52.864221875,114.64577504882813L90.651221875,114.34127504882812L90.007821875,112.06427504882812L85.713921875,96.77402504882812Z" fill-rule="evenodd" fill="#161616" fill-opacity="1"/></g><g><path d="M10.62984375,61.71068190429688C8.31984375,69.27065190429687,6.18484375,77.88065190429688,4.53984375,87.40065190429688C3.31484375,94.57575190429688,2.54484375,101.33075190429687,2.08984375,107.56075190429686C8.70484375,108.99575190429687,16.15984375,110.15075190429687,24.34984375,110.67575190429687C44.19484375,111.97075190429688,61.09984375,109.10075190429689,73.52484375,105.81075190429686C76.39484375,98.53075190429688,79.33484375,89.18565190429688,81.01484375,78.09065190429688C82.16984375,70.42565190429687,82.51984375,63.46068190429688,82.41484375,57.44067190429688C79.43984375,57.05567190429687,75.27484375,56.565669904296875,70.26984375,56.21567090429688C50.38984375,54.815669904296875,35.61984375,56.77567190429688,32.224843750000005,57.23067190429688C26.58984375,58.07067190429687,19.20484375,59.36568190429688,10.62984375,61.71068190429688C10.62984375,61.71068190429688,10.62984375,61.71068190429688,10.62984375,61.71068190429688Z" fill="#FFFFFF" fill-opacity="1"/><path d="M70.33964375,55.218106904296874Q50.26294375,53.80426190429687,32.09204375,56.23953590429687L32.07744375,56.241602904296876Q20.55904375,57.958621904296876,10.36605375,60.74610190429688L9.834523749999999,60.891461904296875L9.673493749999999,61.418461904296876Q5.85549375,73.91375190429687,3.55444375,87.23045190429687Q1.83753075,97.28675190429688,1.09249975,107.48795190429688L1.02925375,108.35395190429688L1.8778427500000001,108.53805190429688Q12.99674375,110.95005190429688,24.28584375,111.67375190429688Q49.15934375,113.29685190429687,73.78084375,106.77745190429687L74.26964375,106.64795190429687L74.45514375,106.17755190429688Q79.84264375,92.51195190429686,82.00354375,78.24035190429687Q83.59374375,67.68745190429688,83.41464375,57.42323190429688L83.39964375,56.55977490429687L82.54314375,56.448940904296876Q76.19784375,55.62776950429687,70.33964375,55.218106904296874ZM11.42570375,62.530741904296875Q21.26894375,59.87528190429688,32.364943749999995,58.220841904296876Q32.368643750000004,58.22034190429687,32.37234375,58.219851904296874Q50.33434375,55.81423410429687,70.20004375,57.213231904296876Q75.60194375,57.59099190429688,81.42684375,58.32277190429687L11.42570375,62.530741904296875Z" fill-rule="evenodd" fill="#161616" fill-opacity="1"/></g><g><g><g><path d="M15.144234046875,67.62569207617187C18.539223046875,70.42567807617188,21.094223046875,73.96070807617187,22.599223046875,78.09072807617187C22.844223046875,78.72072807617188,23.859223046875,78.44072807617188,23.614223046875,77.81072807617187C22.039223046875,73.50567807617188,19.414253046875,69.79569807617187,15.879247046875,66.89069907617187C15.354247046875,66.43569907617187,14.619234046875,67.17069207617187,15.144234046875,67.62569207617187C15.144234046875,67.62569207617187,15.144234046875,67.62569207617187,15.144234046875,67.62569207617187Z" fill="#161616" fill-opacity="1"/></g></g></g><g><g><g><path d="M14.37512557421875,79.42067954101563C17.31513357421875,74.45068954101562,21.06013357421875,70.04067954101562,25.50511357421875,66.36568754101563C26.030113574218753,65.94568754101563,25.29511357421875,65.21068654101562,24.770113574218747,65.63068654101562C20.25513357421875,69.37568954101563,16.44013357421875,73.85567954101563,13.46513467421875,78.89567954101562C13.11513457421875,79.49067954101562,14.02512557421875,80.01567954101563,14.37512557421875,79.42067954101563C14.37512557421875,79.42067954101563,14.37512557421875,79.42067954101563,14.37512557421875,79.42067954101563Z" fill="#161616" fill-opacity="1"/></g></g></g><g><g><g><path d="M61.34464605078125,63.215713314453126C65.22965705078126,67.48571231445312,68.02962705078124,72.49072231445312,69.70962705078125,78.02072231445312C69.91962705078124,78.65072231445313,70.93462705078124,78.40572231445313,70.72462705078125,77.74072231445312C69.00962705078125,72.03571231445312,66.06965705078125,66.89071231445313,62.07965905078125,62.480716314453126C61.62465905078125,61.990716314453124,60.88964605078125,62.725713314453124,61.34464605078125,63.215713314453126C61.34464605078125,63.215713314453126,61.34464605078125,63.215713314453126,61.34464605078125,63.215713314453126Z" fill="#161616" fill-opacity="1"/></g></g></g><g><g><g><path d="M61.97473494921875,76.340666015625C65.29974294921875,71.090696015625,69.60474294921875,66.610696015625,74.74972294921875,63.110686015625C75.30972294921875,62.725685015625,74.78472294921875,61.815687015625,74.22472294921874,62.200686815625C68.93974294921875,65.805696015625,64.49474294921875,70.425696015625,61.06474404921875,75.815666015625C60.71474394921875,76.375666015625,61.62473494921875,76.900666015625,61.97473494921875,76.340666015625C61.97473494921875,76.340666015625,61.97473494921875,76.340666015625,61.97473494921875,76.340666015625Z" fill="#161616" fill-opacity="1"/></g></g></g><g><g><g><path d="M13.745457734375,87.15569104101563C13.815457734375,89.04569204101563,11.925454734375,90.44570204101562,12.275455034375,92.40570204101563C12.485455734375,93.73570204101563,13.640457734375,94.57570204101563,14.900457734375,94.89070204101563C16.300437734375002,95.20570204101563,18.260437734375,94.96070204101562,19.450437734375,94.12070204101562C21.130437734375,92.93070204101562,22.040477734375,90.37570204101563,22.845477734375002,88.59069204101563C23.125477734375,87.99569204101563,22.215477734375,87.43569204101563,21.935477734375,88.06569204101562C19.800477734375,92.58070204101563,18.155477734375,97.27074204101562,17.105467734375,102.17074204101563C16.965477734375,102.83574204101562,17.980477734375,103.11564204101563,18.120477734375,102.45064204101563C19.170477734374998,97.65564204101562,20.745477734375,93.03567204101563,22.845477734375002,88.62568204101562C22.530477734374998,88.45068204101563,22.250477734375,88.27568204101563,21.935477734375,88.10068204101563C20.640477734375,91.00567204101563,19.030477734375,94.78570204101563,15.180477734375,93.94570204101562C11.435472734375,93.14070204101563,14.865457734375,89.46568204101563,14.795457734374999,87.26068504101562C14.760457734375,86.49068504101562,13.710457734375,86.49069004101563,13.745457734375,87.15569104101563C13.745457734375,87.15569104101563,13.745457734375,87.15569104101563,13.745457734375,87.15569104101563Z" fill="#161616" fill-opacity="1"/></g></g></g><g><g><g><path d="M34.49788357421875,101.82069614257813C31.94287957421875,98.91569614257813,32.22289357421875,94.85569614257813,33.83289357421875,91.56569614257812C35.23288357421875,88.62569614257812,39.60788357421875,83.86568614257813,42.687913574218754,87.92568614257813C44.64791357421875,90.55068614257813,43.52791357421875,95.38069614257813,42.44291357421875,98.21569614257812C41.07788357421875,101.75069614257812,36.66788357421875,104.37569614257812,33.79788357421875,100.63069614257813C33.37788357421875,100.10569614257813,32.46789057421875,100.63069614257813,32.88789357421875,101.15569614257812C35.37288357421875,104.37569614257812,39.71288357421875,104.06069614257812,42.12791357421875,100.94569614257813C43.70291357421875,98.91569614257813,44.15791357421875,96.29069614257813,44.50791357421875,93.80569614257813C44.82291357421875,91.60069614257813,44.962913574218746,89.15069614257813,43.52791357421875,87.26068614257812C40.51788357421875,83.20068614257812,35.54788357421875,86.52568614257812,33.62288357421875,89.74569614257813C31.24288157421875,93.70069614257812,30.50789357421875,98.84569614257812,33.76289357421875,102.55569614257813C34.18289357421875,103.08069614257812,34.91788357421875,102.34569614257812,34.49788357421875,101.82069614257813C34.49788357421875,101.82069614257813,34.49788357421875,101.82069614257813,34.49788357421875,101.82069614257813Z" fill="#161616" fill-opacity="1"/></g></g></g><g><g><g><path d="M58.43888087890625,82.99069347851562C58.01888087890625,84.53069547851563,57.63388087890625,86.03568547851563,57.21387887890625,87.57568547851562C56.96887787890625,88.55568547851563,56.37386887890625,89.85069547851563,56.54886927890625,90.86568547851563C56.79386887890625,92.37068547851563,58.57887087890625,93.14066547851563,59.94387087890625,93.21066547851562C64.31886087890625,93.42066547851563,66.38386087890625,89.08068547851562,66.83885087890624,85.37068547851563C66.90885087890625,84.84568547851562,66.06890087890625,84.63569547851563,65.85890087890625,85.09069547851563C63.54890087890625,90.13068547851563,62.11390087890625,95.38066547851562,61.48389087890625,100.87566547851563C61.41390087890625,101.54066547851562,62.46389087890625,101.54066547851562,62.53390087890625,100.87566547851563C63.12890087890625,95.59066547851563,64.56390087890625,90.44569547851563,66.76885087890625,85.61569547851562C66.45390087890625,85.51069547851563,66.10386087890625,85.44068547851562,65.78886087890625,85.33568547851563C65.40386087890624,88.31068547851562,63.93390087890625,91.95068547851562,60.43389087890625,92.12568547851562C59.80388087890625,92.16069547851562,58.92888087890625,92.05568547851563,58.40388087890625,91.63569547851563C57.10888487890625,90.65568547851562,57.91388087890625,88.94069547851562,58.22888087890625,87.78568547851563C58.64888087890625,86.24568547851563,59.03388087890625,84.74068547851563,59.45388087890625,83.20068347851563C59.62888087890625,82.60568389851562,58.61388087890625,82.32569247851562,58.43888087890625,82.99069347851562C58.43888087890625,82.99069347851562,58.43888087890625,82.99069347851562,58.43888087890625,82.99069347851562Z" fill="#161616" fill-opacity="1"/></g></g></g><g><g><g><path d="M36.56533802734375,56.67072692382813C36.77533802734375,56.21572692382813,36.77532802734375,55.830706923828124,36.95032802734375,55.375706923828126C37.40532802734375,54.04570692382813,38.59533802734375,53.940706923828124,39.78532802734375,54.010706923828124C41.25532802734375,54.080706923828124,42.69032802734375,54.25570692382813,44.16032802734375,54.220706923828125C45.665278027343746,54.150706923828125,47.13537802734375,53.940706923828124,48.60537802734375,53.83570692382813C48.95537802734375,53.80070692382812,49.30537802734375,53.76570692382813,49.65537802734375,53.76570692382813C50.49537802734375,53.83570692382813,50.88037802734375,54.18570692382813,50.74027802734375,54.78070692382813C50.915278027343746,55.095706923828125,50.81037802734375,55.34070692382812,51.02037802734375,55.65570692382813C51.37027802734375,56.21572692382813,52.28037802734375,55.690706923828124,51.93037802734375,55.13070692382813C51.61527802734375,54.60570692382812,51.89537802734375,53.97570692382813,51.51037802734375,53.450707923828126C51.23037802734375,53.06570792382813,50.81037802734375,52.89070292382812,50.39037802734375,52.785702923828126C48.465378027343746,52.33070292382813,46.08537802734375,53.100707923828125,44.16032802734375,53.20570792382812C42.06032802734375,53.27570792382812,39.85532802734375,52.68070722382812,37.79033802734375,53.030707923828125C35.83033702734375,53.380707923828126,36.32034502734375,54.71070692382813,35.65534532734375,56.180726923828125C35.37534502734375,56.775726923828124,36.28533802734375,57.30072692382812,36.56533802734375,56.67072692382813C36.56533802734375,56.67072692382813,36.56533802734375,56.67072692382813,36.56533802734375,56.67072692382813Z" fill="#161616" fill-opacity="1"/></g></g></g><g><g><g><path d="M37.08967335546875,56.145706787109376C41.35966935546875,55.83070678710938,45.62966935546875,55.51570678710937,49.89968935546875,55.16570678710937C49.86468935546875,54.81570678710938,49.79468935546875,54.465706787109376,49.75968935546875,54.15070678710938C47.23968935546875,54.50070678710937,44.68466935546875,55.060706787109375,42.12966935546875,54.95570678710938C40.27466935546875,54.88570678710938,38.52465935546875,54.255706787109375,36.77466335546875,55.200706787109375C37.01966335546875,55.30570678710937,37.29966635546875,55.410706787109376,37.54466935546875,55.51570678710937C37.54466935546875,55.200706787109375,37.57967935546875,54.920706787109374,37.57967935546875,54.605706787109376C37.26468035546875,54.605706787109376,36.98466635546875,54.605706787109376,36.66966635546875,54.605706787109376C36.70466635546875,54.74570678710938,36.70467335546875,54.88570678710938,36.73967335546875,55.02570678710938C36.73967335546875,55.55070678710938,37.47466935546875,55.76070678710938,37.71966935546875,55.30570678710937C37.85966935546875,55.16570678710937,37.99966935546875,55.060706787109375,38.13966935546875,54.920706787109374C37.92966935546875,54.74570678710938,37.68465935546875,54.57070678710937,37.47465935546875,54.43070678710937C37.33465935546875,54.67570678710938,37.19468035546875,54.920706787109374,37.05468035546875,55.16570678710937C37.26468035546875,55.44570678710937,37.47467935546875,55.725706787109374,37.68467935546875,56.005706787109375C37.78967935546875,55.90070678710938,37.92967935546875,55.83070678710938,38.03467935546875,55.725706787109374C37.82467935546875,55.55070678710938,37.57966935546875,55.37570678710937,37.36966935546875,55.23570678710937C37.29966635546875,54.50070678710937,49.05968935546875,54.43070678710937,50.17968935546875,54.395706787109376C50.00468935546875,54.22070378710937,49.82968935546875,54.045703787109375,49.65468935546875,53.87070278710937C49.65468935546875,54.395706787109376,49.65468935546875,54.88570678710938,49.61968935546875,55.410706787109376C49.89968935546875,55.270706787109376,50.14468935546875,55.09570678710938,50.42468935546875,54.95570678710938C48.95468935546875,54.115706787109374,47.37968935546875,53.625702787109375,45.69966935546875,53.66070278710937C43.59966935546875,53.695702787109376,41.42966935546875,54.88570678710938,39.50467935546875,53.66070278710937C39.39967935546875,53.975703787109374,39.32965935546875,54.325703787109376,39.22465935546875,54.64070678710937C40.51966935546875,54.64070678710937,41.77966935546875,54.81570678710938,43.03966935546875,55.09570678710938C43.07466935546875,54.74570678710938,43.14466935546875,54.395706787109376,43.17966935546875,54.08070678710938C40.90466935546875,54.15070678710938,38.80465935546875,54.71070678710937,36.77466335546875,55.69070678710938C36.35466385546875,55.90070678710938,36.49467235546875,56.530706787109374,36.91467335546875,56.63570678710938C39.99466935546875,57.685706787109375,43.52966935546875,56.285706787109376,46.67968935546875,56.25070678710937C47.58968935546875,56.25070678710937,52.06968935546875,56.810706787109375,50.66968935546875,54.50070678710937C50.31968935546875,53.94070678710938,49.40968935546875,54.465706787109376,49.75968935546875,55.02570678710938C49.82968935546875,55.130706787109375,47.02968935546875,55.200706787109375,46.67968935546875,55.200706787109375C45.55966935546875,55.200706787109375,44.40466935546875,55.30570678710937,43.28466935546875,55.44570678710937C41.25466935546875,55.69070678710938,39.22466935546875,56.32070678710937,37.19466635546875,55.62070678710938C37.22966635546875,55.935706787109375,37.26467735546875,56.25070678710937,37.33467935546875,56.56570678710938C39.18967935546875,55.655706787109374,41.14966935546875,55.16570678710937,43.21466935546875,55.09570678710938C43.77466935546875,55.060706787109375,43.94966935546875,54.185706787109375,43.35466935546875,54.08070678710938C41.98966935546875,53.76570678710937,40.65966935546875,53.62570378710937,39.25967935546875,53.590703787109376C38.73467935546875,53.590703787109376,38.55967935546875,54.290702787109375,38.97967935546875,54.57070678710937C40.23966935546875,55.37570678710937,41.56966935546875,55.37570678710937,43.03966935546875,55.130706787109375C45.55966935546875,54.71070678710937,47.624689355468746,54.605706787109376,49.93468935546875,55.90070678710938C50.28468935546875,56.11070678710937,50.70468935546875,55.83070678710938,50.73968935546875,55.44570678710937C50.73968935546875,54.920706787109374,50.73968935546875,54.43070678710937,50.77468935546875,53.905706787109374C50.77468935546875,53.62570678710937,50.52968935546875,53.380706787109375,50.249689355468746,53.380706787109375C47.65968935546875,53.450706787109375,45.06966935546875,53.520703787109376,42.47966935546875,53.590703787109376C41.04466935546875,53.62570378710937,38.17465935546875,53.13570278710937,36.94966335546875,54.18570278710938C34.84965935546875,55.97070678710938,38.66467935546875,57.475706787109374,38.45467935546875,55.30570678710937C38.41967935546875,54.990706787109374,38.13966935546875,54.67570678710938,37.78966935546875,54.81570678710938C37.36966935546875,54.990706787109374,37.26467735546875,55.02570678710938,36.98467735546875,55.340706787109376C36.59967635546875,55.795706787109374,37.08967335546875,56.42570678710938,37.61466935546875,56.18070678710937C38.31466935546875,55.865706787109374,38.62967935546875,55.30570678710937,38.55967935546875,54.535706787109376C38.52467935546875,54.22070378710937,38.24466935546875,53.905703787109374,37.89466935546875,54.045703787109375C37.36966935546875,54.22070378710937,37.12466635546875,54.43070678710937,36.84466635546875,54.920706787109374C37.15966635546875,55.02570678710938,37.50965935546875,55.09570678710938,37.824659355468754,55.200706787109375C37.824659355468754,54.780706787109374,37.78966935546875,54.64070678710937,37.61466935546875,54.255706787109375C37.43966935546875,53.87070678710938,36.87968035546875,53.94070678710938,36.70468035546875,54.255706787109375C36.35468095546875,54.88570678710938,36.28467255546875,55.30570678710937,36.56467235546875,55.97070678710938C36.70467335546875,56.285706787109376,37.01967735546875,56.46070678710937,37.33467935546875,56.285706787109376C39.11967935546875,55.30570678710937,42.05966935546875,56.285706787109376,44.05466935546875,56.145706787109376C46.04966935546875,56.005706787109375,48.07968935546875,55.655706787109374,50.07468935546875,55.37570678710937C50.66968935546875,55.30570678710937,50.52968935546875,54.290702787109375,49.93468935546875,54.36070378710937C45.664669355468746,54.67570678710938,41.39466935546875,54.990706787109374,37.12466335546875,55.340706787109376C36.42466335546875,55.16570678710937,36.42467235546875,56.215706787109376,37.08967335546875,56.145706787109376C37.08967335546875,56.145706787109376,37.08967335546875,56.145706787109376,37.08967335546875,56.145706787109376Z" fill="#161616" fill-opacity="1"/></g></g></g><g><g><g><path d="M41.0454020703125,53.310681181640625C40.8004040703125,52.40068118164063,47.5554120703125,52.12068118164063,48.2204120703125,52.08568118164062C48.0454120703125,51.910682181640624,47.8704120703125,51.735683181640624,47.6954020703125,51.56068218164062C47.6954020703125,52.01568118164062,47.6954020703125,52.47068118164062,47.6954020703125,52.92568118164063C47.9754120703125,52.785681181640626,48.2204120703125,52.61068118164062,48.5004120703125,52.47068118164062C47.6604020703125,51.98068318164062,46.7854020703125,51.665682181640626,45.8054120703125,51.665682181640626C44.6504120703125,51.665682181640626,43.0753920703125,52.68068118164062,42.0253920703125,52.19068118164063C41.9903920703125,52.505681181640625,41.9554120703125,52.82068118164062,41.8854120703125,53.13568118164063C43.2504120703125,52.85568118164063,44.5454020703125,52.645681181640626,45.9104020703125,52.785681181640626C45.8754120703125,52.435681181640625,45.8054120703125,52.08568118164062,45.7704120703125,51.77068218164062C44.2304120703125,52.05068118164063,42.6554120703125,52.33068118164063,41.1154120703125,52.61068118164062C40.5204070703125,52.715681181640626,40.6604140703125,53.660681181640626,41.2554120703125,53.62568118164062C43.1454120703125,53.55568118164062,45.0354120703125,53.34568118164063,46.925412070312504,52.99568118164063C47.5204120703125,52.89068118164062,47.3804120703125,51.945686181640625,46.7854020703125,51.98068618164063C46.050412070312504,52.01568118164062,45.2804120703125,52.05068118164063,44.5454020703125,52.05068118164063C44.5804120703125,52.40068118164063,44.6504120703125,52.75068118164062,44.6854120703125,53.06568118164063C45.5604020703125,52.785681181640626,46.3654120703125,52.68068118164062,47.3104120703125,52.715681181640626C47.2054120703125,52.40068118164063,47.1354120703125,52.05068118164063,47.0304120703125,51.735683181640624C46.6804120703125,51.84068318164063,46.3304120703125,51.910682181640624,45.9804120703125,52.01568118164062C45.9454020703125,52.365681181640625,45.8754120703125,52.71569118164062,45.8404120703125,53.030681181640624C46.4354120703125,53.065691181640624,46.925412070312504,53.030681181640624,47.4854020703125,52.92568118164063C48.1504120703125,52.82068118164062,47.8704120703125,51.805683181640624,47.2054120703125,51.910682181640624C46.7504120703125,52.01568118164062,46.2954120703125,52.05069118164062,45.8404120703125,51.98068618164063C45.2454120703125,51.945686181640625,45.1054120703125,52.92568118164063,45.7004120703125,52.99568118164063C46.4354120703125,53.13568118164063,46.9604120703125,53.030681181640624,47.5554120703125,52.61068118164062C47.9754120703125,52.295681181640624,47.8354120703125,51.66568618164062,47.2754120703125,51.63068618164063C46.2604020703125,51.59568618164062,45.3504120703125,51.735683181640624,44.3704120703125,52.05068118164063C43.8104120703125,52.225681181640624,43.8804120703125,53.100681181640624,44.5104120703125,53.06568118164063C45.2454120703125,53.030681181640624,46.0154120703125,52.99568118164063,46.7504120703125,52.99568118164063C46.7154120703125,52.645681181640626,46.6454120703125,52.295681181640624,46.6104120703125,51.98068618164063C44.8254120703125,52.330691181640624,43.0404020703125,52.54068118164062,41.2204020703125,52.575681181640626C41.2554020703125,52.92568118164063,41.3254120703125,53.27568118164062,41.3604120703125,53.590681181640626C42.9004120703125,53.310681181640625,44.4754120703125,53.030681181640624,46.0154120703125,52.75068118164062C46.6454120703125,52.645681181640626,46.4354120703125,51.77068218164062,45.8754120703125,51.735683181640624C44.4054120703125,51.595683181640624,43.0054020703125,51.84068318164063,41.5704020703125,52.12068118164063C41.1504020703125,52.225681181640624,41.0454120703125,52.89068118164062,41.4304120703125,53.06568118164063C42.2004120703125,53.41568118164062,42.8304020703125,53.41568118164062,43.6704120703125,53.170681181640624C45.2454120703125,52.715681181640626,46.4354120703125,52.47068118164062,47.9404120703125,53.34568118164063C48.2904120703125,53.55568118164062,48.7104120703125,53.27568118164062,48.7454120703125,52.89068118164062C48.7454120703125,52.435681181640625,48.7454120703125,51.98068318164062,48.7454120703125,51.52568318164062C48.7454120703125,51.24568418164063,48.5004120703125,50.96568428164063,48.2204120703125,51.00068424164063C46.050412070312504,51.17568418164063,43.7754120703125,51.21068118164062,41.6054120703125,51.56068218164062C40.4854140703125,51.735683181640624,39.7154020703125,52.400691181640624,39.9954022703125,53.555691181640626C40.2054020703125,54.25569118164063,41.2204020703125,53.975681181640624,41.0454020703125,53.310681181640625C41.0454020703125,53.310681181640625,41.0454020703125,53.310681181640625,41.0454020703125,53.310681181640625Z" fill="#161616" fill-opacity="1"/></g></g></g><g><g><g><path d="M40.9381394140625,53.10069844726563C40.9381394140625,52.64569844726562,40.9731294140625,52.22569844726563,40.9731294140625,51.77068844726563C40.7981314140625,51.945688447265624,40.6231314140625,52.120698447265625,40.4481314140625,52.29569844726562C41.7081294140625,52.19068844726562,43.0031394140625,52.08569844726563,44.2631494140625,51.980698447265624C44.8581494140625,51.94569844726563,45.4531494140625,51.875688447265624,46.0131494140625,51.84069844726562C46.083149414062504,51.84069844726562,48.2181494140625,51.595696447265624,47.9031494140625,52.15569844726563C47.5881494140625,52.75069844726563,48.498149414062496,53.275698447265626,48.8131494140625,52.68069844726563C50.4931494140625,49.39069844726563,41.5681394140625,51.140693447265626,40.4131424140625,51.24569344726562C40.1331414140625,51.28069344726563,39.8881409140625,51.455693447265624,39.8881409140625,51.77068844726563C39.8881409140625,52.22569844726563,39.8531494140625,52.64569844726562,39.8531494140625,53.10069844726563C39.8881494140625,53.76569844726563,40.9381394140625,53.76569844726563,40.9381394140625,53.10069844726563C40.9381394140625,53.10069844726563,40.9381394140625,53.10069844726563,40.9381394140625,53.10069844726563Z" fill="#161616" fill-opacity="1"/></g></g></g><g><g><g><path d="M44.4398051171875,44.91067032958984C44.4748051171875,44.875670329589845,44.5448151171875,44.84067032958984,44.5798151171875,44.875670329589845C44.6148151171875,44.875670329589845,44.6148151171875,44.875670329589845,44.5798151171875,44.875670329589845C44.5798151171875,44.875670329589845,44.5098051171875,44.84067032958984,44.5098051171875,44.84067032958984C44.4748051171875,44.77067032958984,44.4398051171875,44.70067032958984,44.4398051171875,44.63067032958985C44.4398051171875,44.420670329589846,44.7548051171875,44.210670329589846,44.9648051171875,44.210670329589846C45.2798051171875,44.210670329589846,45.5248151171875,44.805670329589844,45.1048151171875,44.84067032958984C45.0348151171875,44.84067032958984,44.9647951171875,44.805670329589844,44.8947951171875,44.77067032958984C44.8247951171875,44.735670329589844,44.8597951171875,44.63067032958985,44.8247951171875,44.735670329589844C44.8597951171875,44.665670329589844,45.0348051171875,44.595670329589844,45.0348051171875,44.56067032958985C44.9998051171875,44.52567032958984,44.9998051171875,44.45567032958984,44.9648051171875,44.420670329589846C44.9648051171875,44.420670329589846,44.9648051171875,44.45567032958984,44.9648051171875,44.45567032958984C44.9648051171875,44.45567032958984,44.8947951171875,44.56067032958985,44.8947951171875,44.56067032958985C44.8947951171875,44.56067032958985,44.8598051171875,44.595670329589844,44.8598051171875,44.595670329589844C44.8598051171875,44.595670329589844,45.0348051171875,44.70067032958984,45.0348051171875,44.70067032958984C45.0348051171875,44.70067032958984,45.0697951171875,44.56067032958985,45.0697951171875,44.52567032958984C45.1047951171875,44.45567032958984,45.139795117187504,44.420670329589846,45.2447951171875,44.420670329589846C45.139795117187504,44.420670329589846,45.0698051171875,44.420670329589846,44.9648051171875,44.420670329589846C45.1398051171875,44.45567032958984,45.2797951171875,44.735670329589844,45.1747951171875,44.91067032958984C45.0697951171875,45.05067032958984,44.7198051171875,44.98067032958984,44.6848051171875,44.805670329589844C44.4748051171875,44.17567032958984,43.4597998171875,44.45567032958984,43.6698001171875,45.085670329589846C43.9497991171875,45.85567032958984,44.8948151171875,46.27567032958984,45.6298151171875,45.85567032958984C46.3648151171875,45.43567032958985,46.4348051171875,44.420670329589846,45.9098051171875,43.790670329589844C45.6298051171875,43.475668329589844,45.2098051171875,43.30067032958984,44.7898051171875,43.475670329589846C44.4398051171875,43.61567032958985,44.1598121171875,43.96567032958984,44.0548121171875,44.31567032958984C43.9498121171875,44.70067032958984,44.0198091171875,45.19067032958984,44.3348091171875,45.470670329589844C44.6848051171875,45.78567032958984,45.2797951171875,45.64567032958984,45.5947951171875,45.36567032958985C46.2947951171875,44.77067032958984,46.1198151171875,43.545670329589846,45.1048151171875,43.545670329589846C44.2648121171875,43.545670329589846,43.5297954171875,44.420670329589846,43.9497951171875,45.225670329589846C44.2997951171875,45.960670329589846,45.3498151171875,46.13567032958984,45.9798151171875,45.610670329589844C46.6798151171875,45.015670329589845,46.4697951171875,43.89567032958984,45.7697951171875,43.40567232958984C44.8947951171875,42.81067032958985,43.6698081171875,43.440669329589845,43.4598083171875,44.420670329589846C43.3548084171875,44.875670329589845,43.5648121171875,45.36567032958985,43.8798121171875,45.680670329589844C44.2998121171875,46.030670329589846,44.7898051171875,46.030670329589846,45.2098051171875,45.71567032958984C45.4198051171875,45.540670329589844,45.3848051171875,45.155670329589846,45.2098051171875,44.98067032958984C44.9648051171875,44.665670329589844,44.6498051171875,44.735670329589844,44.4398051171875,44.91067032958984C44.4398051171875,44.91067032958984,44.4398051171875,44.91067032958984,44.4398051171875,44.91067032958984Z" fill="#161616" fill-opacity="1"/></g></g></g><g><g><g><path d="M36.00385191796875,49.49566580078125C36.91385091796875,48.97066580078125,37.82385091796875,48.44566580078125,38.73385091796875,47.92066780078125C39.32884091796875,47.57066780078125,38.80384091796875,46.66066580078125,38.208850917968746,47.01066610078125C37.29885091796875,47.53566780078125,36.38885091796875,48.06066580078125,35.47885291796875,48.58566580078125C34.91885291796875,48.93566580078125,35.44385291796875,49.84566580078125,36.00385191796875,49.49566580078125C36.00385191796875,49.49566580078125,36.00385191796875,49.49566580078125,36.00385191796875,49.49566580078125Z" fill="#161616" fill-opacity="1"/></g></g></g><g><g><g><path d="M35.30581787109375,43.615666198730466C35.97081787109375,43.615666198730466,36.60080787109375,43.615666198730466,37.26580787109375,43.615666198730466C37.93080787109375,43.615666198730466,37.93080787109375,42.56566619873047,37.26580787109375,42.56566619873047C36.60080787109375,42.56566619873047,35.97081787109375,42.56566619873047,35.30581787109375,42.56566619873047C34.64081787109375,42.56566619873047,34.64081787109375,43.615666198730466,35.30581787109375,43.615666198730466C35.30581787109375,43.615666198730466,35.30581787109375,43.615666198730466,35.30581787109375,43.615666198730466Z" fill="#161616" fill-opacity="1"/></g></g></g><g><g><g><path d="M41.707908828125,39.800683049316405C41.392908828125,39.03068304931641,41.042908828125,38.22568304931641,40.727908828125,37.455680049316406C40.482911828125,36.825682049316406,39.467904828125,37.10567768931641,39.712904628125,37.73567704931641C40.027904828125,38.50567304931641,40.377901828125,39.31068304931641,40.692898828125,40.080683049316406C40.972898828125,40.710673049316405,41.987908828125,40.43068304931641,41.707908828125,39.800683049316405C41.707908828125,39.800683049316405,41.707908828125,39.800683049316405,41.707908828125,39.800683049316405Z" fill="#161616" fill-opacity="1"/></g></g></g><g><g><g><path d="M47.23886232421875,38.54064008544922C47.44886232421875,37.49064008544922,47.62386232421875,36.44064008544922,47.83386232421875,35.39064408544922C47.97386232421875,34.72564309544922,46.95885532421875,34.44564208544922,46.81885532421875,35.11064008544922C46.60885532421875,36.16064008544922,46.43385232421875,37.21064008544922,46.22385192421875,38.26064008544922C46.08385232421875,38.89064008544922,47.09885932421875,39.20564008544922,47.23886232421875,38.54064008544922C47.23886232421875,38.54064008544922,47.23886232421875,38.54064008544922,47.23886232421875,38.54064008544922Z" fill="#161616" fill-opacity="1"/></g></g></g><g><g><g><path d="M50.493659046875,41.20069242431641C51.193658046875,40.710692424316406,51.893658046875004,40.25569242431641,52.593658046875,39.765692424316406C53.153658046875,39.3806914243164,52.628658046875,38.47069342431641,52.068658046875,38.855693224316404C51.368658046875,39.345691424316406,50.668659046875,39.80069242431641,49.968660046875,40.290692424316404C49.408660046875,40.67569242431641,49.933660046875,41.585692424316406,50.493659046875,41.20069242431641C50.493659046875,41.20069242431641,50.493659046875,41.20069242431641,50.493659046875,41.20069242431641Z" fill="#161616" fill-opacity="1"/></g></g></g><g><g><g><path d="M52.314715515625,44.94566932666016C52.979715515625,45.330667326660155,53.609708515625,45.71566732666015,54.274708515625,46.10066732666016C54.869708515625,46.45066732666016,55.394708515625,45.540667326660156,54.799708515625,45.190667326660154C54.134708515625,44.80566932666016,53.504718515625,44.42066932666015,52.839715515625,44.03566762666016C52.244715515625,43.68566732666016,51.719715515625,44.59566932666016,52.314715515625,44.94566932666016C52.314715515625,44.94566932666016,52.314715515625,44.94566932666016,52.314715515625,44.94566932666016Z" fill="#161616" fill-opacity="1"/></g></g></g><g><g><g><path d="M12.23869935546875,65.42069950976563C8.17868935546875,77.07567250976562,6.7786893554687495,89.36067250976562,5.41368767546875,101.57567250976562C5.34368775546875,102.24067250976563,6.39368935546875,102.24067250976563,6.46368935546875,101.57567250976562C7.79368935546875,89.46567250976562,9.19369935546875,77.28567250976562,13.25369935546875,65.70070350976563C13.46369935546875,65.03570180976563,12.44869935546875,64.79070050976563,12.23869935546875,65.42069950976563C12.23869935546875,65.42069950976563,12.23869935546875,65.42069950976563,12.23869935546875,65.42069950976563Z" fill="#161616" fill-opacity="1"/></g></g></g><g><g><g><path d="M77.68878621093751,62.16568115234375C75.9737862109375,75.25573115234376,73.0338262109375,88.17063115234374,68.9038039109375,100.73573115234376C68.6938042109375,101.36563115234375,69.7088112109375,101.64573115234376,69.9188062109375,101.01573115234375C74.0488262109375,88.34573115234375,76.9887862109375,75.36073115234375,78.7387862109375,62.16568115234375C78.8087862109375,61.50068115234375,77.7587862109375,61.50068115234375,77.68878621093751,62.16568115234375C77.68878621093751,62.16568115234375,77.68878621093751,62.16568115234375,77.68878621093751,62.16568115234375Z" fill="#161616" fill-opacity="1"/></g></g></g><g><g><g><path d="M13.28922776953125,65.5256616796875C23.999213769531252,62.8656616796875,34.88421376953125,61.1156616796875,45.87421376953125,60.2756616796875C51.22941376953125,59.8556616796875,56.58431376953125,59.6806606796875,61.93941376953125,59.7156616796875C64.63441376953125,59.7156616796875,67.29441376953125,59.7856616796875,69.98941376953124,59.9256616796875C72.61441376953124,60.0656616796875,75.20441376953124,60.2406616796875,77.40931376953125,61.8156616796875C77.96941376953124,62.2006516796875,78.49441376953125,61.2906616796875,77.93441376953125,60.9056616796875C74.01441376953125,58.1406596796875,68.13441376953125,58.7706604796875,63.61941376953125,58.7006605796875C57.91441376953125,58.6306604796875,52.20931376953125,58.7706583796875,46.53921376953125,59.1906606796875C35.23421376953125,59.9956616796875,24.03421376953125,61.8156616796875,13.00923076953125,64.5456616796875C12.37923276953125,64.6856516796875,12.65922840953125,65.7006616796875,13.28922776953125,65.5256616796875C13.28922776953125,65.5256616796875,13.28922776953125,65.5256616796875,13.28922776953125,65.5256616796875Z" fill="#161616" fill-opacity="1"/></g></g></g><g><g><g><path d="M5.58859412890625,102.87071486328125C13.98858212890625,108.99570486328125,25.32858212890625,107.59570486328126,35.05858212890625,107.14070486328126C41.18358212890625,106.86070486328126,47.30858212890625,106.47570486328125,53.39858212890625,105.77570486328125C58.57858212890625,105.14570486328125,64.38858212890625,104.76070486328125,68.93858212890625,101.96070686328125C69.49858212890625,101.61070686328125,68.97358212890626,100.70070486328125,68.41358212890626,101.05070516328125C63.68858212890625,103.95570486328126,57.42358212890625,104.27071486328126,52.03358212890625,104.86570486328125C46.39858212890625,105.49570486328125,40.72858212890625,105.81070486328125,35.05858212890625,106.09069486328124C25.50358212890625,106.54570486328124,14.33858212890625,107.94570486328125,6.11359312890625,101.96070686328125C5.55359412890625,101.57570686328125,5.02859412890625,102.48571486328125,5.58859412890625,102.87071486328125C5.58859412890625,102.87071486328125,5.58859412890625,102.87071486328125,5.58859412890625,102.87071486328125Z" fill="#161616" fill-opacity="1"/></g></g></g><g><g><g><path d="M71.1447112109375,103.78065984375C70.4097082109375,103.22065984375,71.0746812109375,101.96065284375,71.9496812109375,102.34564984375C72.9996812109375,102.80064984375,72.2997112109375,104.20064984375,71.3197112109375,103.88564984375C70.6897082109375,103.67564984375,70.4096912109375,104.69064984375,71.0396912109375,104.90065984375C72.0196912109375,105.21565984375,73.0697012109375,104.65564984375,73.4547012109375,103.71064984375C73.8397012109375,102.76564984375,73.2797012109375,101.75065584375,72.4047012109375,101.36565684375C71.4947012109375,100.98065684375,70.4446842109375,101.29565474375,70.0246832109375,102.20565984375C69.6046832109375,103.08065984375,69.8847093109375,104.09565984375,70.6197082109375,104.69065984375C71.1447112109375,105.11065984375,71.6697112109375,104.20065984375,71.1447112109375,103.78065984375C71.1447112109375,103.78065984375,71.1447112109375,103.78065984375,71.1447112109375,103.78065984375Z" fill="#161616" fill-opacity="1"/></g></g></g><g><g><g><path d="M14.41060556640625,87.82065142578125C14.72560556640625,87.89065142578124,15.04061056640625,87.99566142578125,15.35561056640625,88.06566142578124C15.21561056640625,87.89066142578125,15.11059056640625,87.71564942578125,14.97059056640625,87.57564942578125C15.11059056640625,89.36065142578126,13.25560956640625,90.79566142578125,14.13060856640625,92.65065142578125C14.76060956640625,94.01566142578125,16.37060056640625,94.68066142578125,17.77059056640625,94.19066142578124C18.40060056640625,93.98066142578125,18.12059056640625,92.96565142578125,17.49060056640625,93.17566142578124C15.81060056640625,93.77066142578126,14.58559556640625,92.16066142578126,15.14559056640625,90.62066142578125C15.53059056640625,89.57065142578125,16.12559056640625,88.73066142578125,16.02059056640625,87.54065942578126C15.98559056640625,87.29565942578125,15.88061056640625,87.08565042578125,15.63561056640625,87.05065042578126C15.32061056640625,86.98065042578125,15.00560056640625,86.87565712578125,14.69059856640625,86.80565702578124C14.02560056640625,86.63065742578125,13.78060456640625,87.64565642578125,14.41060556640625,87.82065142578125C14.41060556640625,87.82065142578125,14.41060556640625,87.82065142578125,14.41060556640625,87.82065142578125Z" fill="#161616" fill-opacity="1"/></g></g></g><g><g><g><path d="M14.690480390625,87.99564916015625C14.130482390625,89.50064916015624,12.730485390625,91.88064916015625,13.885485390625,93.45564916015626C14.725490390625,94.57564916015625,16.335480390625,94.47064916015626,17.560480390625,94.26064916015625C18.225480390625002,94.15564916015624,17.945490390625,93.14064916015624,17.280490390625,93.24564916015625C16.230490390625,93.42064916015624,14.410482390625,93.52564916015625,14.515480390625001,91.95064916015625C14.585480390625,90.72564916015625,15.320480390625,89.43064916015625,15.740480390625,88.31064616015625C15.950480390625,87.64564731015625,14.935480390624999,87.36564916015625,14.690480390625,87.99564916015625C14.690480390625,87.99564916015625,14.690480390625,87.99564916015625,14.690480390625,87.99564916015625Z" fill="#161616" fill-opacity="1"/></g></g></g><g><g><g><path d="M14.47778822265625,87.57567932226563C12.83278422265625,89.88568032226563,12.132778222656249,93.56070032226563,15.91277822265625,93.91070032226563C19.44778822265625,94.26070032226562,21.65278822265625,91.07570032226562,22.702788222656253,88.13568132226563C22.94778822265625,87.50568132226563,21.93278822265625,87.22568632226563,21.687788222656252,87.85568532226563C19.937788222656252,92.61570032226562,18.01278822265625,97.37573032226562,16.89278822265625,102.34573032226562C16.75278822265625,103.01073032226563,17.76778822265625,103.29073032226563,17.90778822265625,102.62573032226562C19.02778822265625,97.65573032226563,20.95278822265625,92.89569032226562,22.702788222656253,88.13568132226563C22.35278822265625,88.03068132226562,22.03778822265625,87.96068532226562,21.687788222656252,87.85568532226563C20.95278822265625,89.88568032226563,19.76274822265625,92.05570032226562,17.52274822265625,92.68570032226563C15.91276822265625,93.17570032226563,14.26777822265625,92.72070032226563,14.16277822265625,90.72568032226563C14.12777722265625,89.85068032226563,14.89777822265625,88.76569032226563,15.38777822265625,88.06568832226563C15.77277822265625,87.57568832226562,14.862788222656249,87.05067932226562,14.47778822265625,87.57567932226563C14.47778822265625,87.57567932226563,14.47778822265625,87.57567932226563,14.47778822265625,87.57567932226563Z" fill="#161616" fill-opacity="1"/></g></g></g><g><g><g><path d="M22.14358845703125,87.96068491796875C22.42358845703125,88.76568091796875,21.30358845703125,90.62068091796876,21.02358845703125,91.46067091796876C20.60359845703125,92.65067091796875,20.18360845703125,93.84070091796875,19.76360845703125,95.03071091796875C18.88860845703125,97.51569091796875,18.01360645703125,100.00069091796875,17.13860615703125,102.48569091796875C16.92860645703125,103.11569091796875,17.94361345703125,103.39569091796875,18.15360845703125,102.76569091796875C19.13360845703125,99.96569091796874,20.11360845703125,97.13070091796875,21.12862845703125,94.33071091796874C21.58362845703125,93.03571091796874,22.03858845703125,91.74067091796874,22.49358845703125,90.44569091796875C22.773588457031252,89.67569091796875,23.43862845703125,88.55569091796875,23.15861845703125,87.71569191796875C22.94862845703125,87.05069191796875,21.93358845703125,87.33068556796874,22.14358845703125,87.96068491796875C22.14358845703125,87.96068491796875,22.14358845703125,87.96068491796875,22.14358845703125,87.96068491796875Z" fill="#161616" fill-opacity="1"/></g></g></g><g><g><g><path d="M22.07360416015625,88.69567993164063C22.24860416015625,90.93567993164062,20.74361416015625,93.49067993164063,19.97360416015625,95.55567993164063C19.09860416015625,97.83067993164062,18.25862016015625,100.07072993164063,17.38362066015625,102.34572993164062C17.13862016015625,102.97562993164063,18.15360616015625,103.25572993164063,18.39860416015625,102.62572993164062C19.34360416015625,100.14072993164062,20.28862416015625,97.65567993164062,21.23363416015625,95.17067993164062C22.00363416015625,93.14067993164062,23.298604160156252,90.90067993164062,23.12360416015625,88.69567993164063C23.08860416015625,88.03067993164062,22.03860416015625,88.03067993164062,22.07360416015625,88.69567993164063C22.07360416015625,88.69567993164063,22.07360416015625,88.69567993164063,22.07360416015625,88.69567993164063Z" fill="#161616" fill-opacity="1"/></g></g></g><g><g><g><path d="M34.148618515625,99.89570722656251C32.468620515625,96.8507072265625,33.518628515625,93.4206772265625,35.513628515625,90.7956772265625C36.318618515625,89.7456672265625,37.298618515625,88.4156572265625,38.488618515625,87.7856572265625C40.903618515625,86.4556602265625,42.618628515625,88.9756572265625,42.898628515625,91.0756372265625C43.318628515625,94.1556372265625,42.408628515625,97.5157072265625,40.693618515625,100.0707072265625C39.573618515625,101.7157072265625,37.088648515624996,102.2757072265625,35.233638515625,101.3307072265625C33.903638515625,100.63070722656249,33.413638515625,99.02070722656251,33.308638515625,97.6207072265625C33.063634515625,94.6806772265625,33.973638515625,91.2156472265625,36.178648515625,89.1506572265625C37.333648515625,88.0306572265625,39.188648515625,87.0156602265625,40.833648515625,87.4356572265625C43.318628515625,88.1006572265625,42.968628515625,91.2156772265625,42.653628515625,93.2106772265625C42.233628515625,95.9756772265625,41.638618515625,99.6857072265625,38.873608515625,101.0857072265625C37.088608515625,101.9607072265625,35.163628515625,101.0856072265625,34.218628515625,99.4756072265625C33.308628515625,97.9006072265625,33.448618515625,95.9756772265625,33.973618515625,94.2956772265625C34.463618515625,92.7206772265625,35.268618515625,91.1806772265625,36.423618515625,89.9556772265625C37.928618515625,88.3806672265625,40.868648515625,86.9806602265625,42.233628515625,89.5006572265625C43.108628515625,91.1456472265625,42.408628515625,93.4206472265625,42.023608515625,95.1006472265625C41.603618515625,96.9556072265625,41.043608515624996,98.6707072265625,39.748618515625,100.1057072265625C39.293608515625,100.5957072265625,40.028648515625,101.3657072265625,40.483648515625,100.8407072265625C42.023648515625,99.1257072265625,42.688628515625,97.0257072265625,43.143628515625,94.8206772265625C43.563628515625,92.8256772265625,44.123628515625,90.4456772265625,42.933628515625,88.5906672265625C40.483648515625,84.7406672265625,35.758648515625,88.4856672265625,34.183638515625,91.1456772265625C32.293633115625,94.3656772265625,31.278623515625,99.5807072265625,35.093628515625,101.8907072265625C39.118618515625,104.3057072265625,42.163618515625004,99.7207072265625,43.038628515625,96.3607072265625C43.808628515625,93.3156772265625,45.243628515625,86.3156646265625,40.203648515625,86.2806647605625C35.618638515625,86.2106646265625,32.888638515625,91.0056772265625,32.328637515625,94.9606772265625C31.838638515625,98.5657072265625,32.748627515625,102.7306072265625,37.088608515625,102.8006072265625C39.258618515625,102.8356072265625,40.483618515625,102.2406072265625,41.673618515625,100.3857072265625C42.933628515625,98.4257072265625,43.703628515625,96.1856472265625,43.913628515625,93.8756472265625C44.123628515625,91.6706472265625,43.948628515625,88.9756572265625,42.198618515625,87.4006572265625C40.728618515625,86.0706582265625,38.838648515624996,86.1406642265625,37.333648515625,87.3306672265625C33.483638515625,90.3056772265625,30.683638515625,95.87067722656249,33.203638515625,100.4907072265625C33.553638515625,101.0157072265625,34.463618515625,100.4907072265625,34.148618515625,99.89570722656251C34.148618515625,99.89570722656251,34.148618515625,99.89570722656251,34.148618515625,99.89570722656251Z" fill="#161616" fill-opacity="1"/></g></g></g><g><g><g><path d="M39.95991366796875,100.07067749023437C39.71491366796875,100.31567749023438,39.43490966796875,100.56068149023437,39.18990966796875,100.80568049023438C38.97990966796875,101.01567749023438,38.97990966796875,101.36567749023438,39.18990966796875,101.54067749023437C39.39990966796875,101.75067749023438,39.71490266796875,101.75067749023438,39.92490266796875,101.54067749023437C40.16989966796875,101.29567749023437,40.44990966796875,101.05067749023438,40.69490966796875,100.80568049023438C40.90490966796875,100.59568049023437,40.90490966796875,100.24567749023437,40.69490966796875,100.07067749023437C40.48490966796875,99.86067749023438,40.16990966796875,99.86067749023438,39.95991366796875,100.07067749023437C39.95991366796875,100.07067749023437,39.95991366796875,100.07067749023437,39.95991366796875,100.07067749023437Z" fill="#161616" fill-opacity="1"/></g></g></g><g><g><g><path d="M40.65756208984375,100.77066787109375C40.76256208984375,100.66566787109375,40.90256208984375,100.56066787109376,41.00756208984375,100.42067187109375C41.42756208984375,100.03567187109375,40.86756208984375,99.23067387109376,40.37756208984375,99.58067427109376C39.57256208984375,100.17567487109375,38.83756308984375,100.80567787109375,38.20756308984375,101.54067787109375C37.75256308984375,102.03067787109374,38.48755608984375,102.80066787109375,38.94255608984375,102.27566787109375C39.53755208984375,101.61066787109375,40.20256208984375,101.01567787109374,40.90256208984375,100.49067487109374C40.69256208984375,100.21067487109374,40.48255208984375,99.93066787109375,40.27255208984375,99.65066787109375C40.16755208984375,99.75566787109375,40.02755208984375,99.86066787109375,39.92255208984375,100.00066787109375C39.43255208984375,100.49066787109375,40.16756208984375,101.22566787109375,40.65756208984375,100.77066787109375C40.65756208984375,100.77066787109375,40.65756208984375,100.77066787109375,40.65756208984375,100.77066787109375Z" fill="#161616" fill-opacity="1"/></g></g></g><g><g><g><path d="M58.82475023046875,83.86569333984374C59.69974623046875,83.62069233984376,58.82476023046875,86.45570333984375,58.78976023046875,86.66570333984374C58.64976023046875,87.26070333984374,58.54476423046875,87.85567333984375,58.50976423046875,88.45066333984374C58.47476423046875,89.39567333984375,58.71976723046875,90.34067333984375,59.27976623046875,91.11066333984375C60.574766230468754,92.89567333984375,62.46474623046875,92.40566333984376,64.14474623046875,91.42567333984375C64.73974623046875,91.07566333984374,64.21474623046875,90.16570333984374,63.61974623046875,90.51570333984375C62.46474623046875,91.21570333984374,61.02976623046875,91.77566333984375,60.08476623046875,90.37566333984375C59.69976623046875,89.81567333984376,59.55975623046875,89.08070333984375,59.59475623046875,88.41570333984374C59.62975623046875,87.12070333984374,60.25975623046875,86.00069333984375,60.36475623046875,84.74069333984374C60.46975623046875,83.58569233984375,59.87475623046875,82.43069233984374,58.54475323046875,82.81569203984375C57.91475523046875,83.02569233984374,58.19475087046875,84.04069333984376,58.82475023046875,83.86569333984374C58.82475023046875,83.86569333984374,58.82475023046875,83.86569333984374,58.82475023046875,83.86569333984374Z" fill="#161616" fill-opacity="1"/></g></g></g><g><g><g><path d="M58.5419990234375,83.55067689257812C58.2619970234375,84.81067989257812,57.9820110234375,86.07068989257813,57.7020110234375,87.36566989257813C57.4920110234375,88.31066989257812,57.1770020234375,89.39566989257813,57.3870022234375,90.34066989257812C57.4920020234375,90.90066989257812,57.7720110234375,91.42566989257813,58.2270110234375,91.81066989257812C58.8220090234375,92.30066989257813,59.4869990234375,92.09066989257812,60.1169990234375,92.44066989257813C60.2919990234375,92.12566989257813,60.4669990234375,91.84566989257813,60.6419990234375,91.53066989257812C58.3319990234375,90.37566989257813,58.7169990234375,87.64566989257813,59.2419990234375,85.54567989257812C58.8919990234375,85.44067989257813,58.5770090234375,85.37068989257813,58.2270110234375,85.26568989257812C57.7720110234375,87.71566989257812,57.5619980234375,91.88066989257813,60.9920190234375,92.26566989257813C62.1820190234375,92.40566989257812,63.1270190234375,91.70566989257813,63.7920190234375,90.76066989257812C64.9820090234375,89.08066989257813,65.7520190234375,86.91066989257813,66.6620190234375,85.05567989257813C66.3470090234375,84.91567989257813,66.0320090234375,84.77567989257813,65.7170190234375,84.63567989257812C64.2120190234375,90.09566989257813,62.9170190234375,95.62568989257812,61.8670190234375,101.19068989257812C61.7270190234375,101.85568989257813,62.7420190234375,102.13568989257813,62.8820190234375,101.47068989257812C63.9320090234375,95.90568989257812,65.2269790234375,90.37566989257813,66.7319790234375,84.91568989257813C66.8719790234375,84.35568989257813,66.0320090234375,83.97068089257813,65.7870190234375,84.49567989257812C64.9470090234375,86.24567989257812,64.2119790234375,88.10066989257813,63.1969790234375,89.78066989257812C62.3219790234375,91.21566989257812,60.6420090234375,91.56566989257813,59.5570090234375,90.09566989257813C58.6120090234375,88.80066989257813,58.9970090234375,86.94566989257812,59.2770090234375,85.51067989257812C59.4170090234375,84.84567989257812,58.4369990234375,84.56567989257813,58.2620040234375,85.23067989257812C57.6670020234375,87.82066989257812,57.3870109234375,91.00566989257813,60.1520090234375,92.40566989257812C60.7470090234375,92.72066989257813,61.2720190234375,91.84566989257813,60.6770090234375,91.49566989257812C60.4320090234375,91.35566989257812,59.9070090234375,91.32066989257812,59.7320090234375,91.21566989257812C58.5420090234375,90.41066989257813,58.4019890234375,89.50066989257813,58.6469890234375,88.24066989257813C58.9269890234375,86.77066989257813,59.3120090234375,85.26567989257812,59.6270090234375,83.79568089257812C59.6970090234375,83.20068149257813,58.6819990234375,82.92067689257813,58.5419990234375,83.55067689257812C58.5419990234375,83.55067689257812,58.5419990234375,83.55067689257812,58.5419990234375,83.55067689257812Z" fill="#161616" fill-opacity="1"/></g></g></g><g><g><g><path d="M102.3993924609375,1.19568C101.5243924609375,-0.659317,99.1094224609375,-0.134319,98.0944224609375,1.26568C97.2544024609375,2.45568,96.9394024609375,4.06567,96.5194024609375,5.43067C95.8894024609375,7.49567,95.2244044609375,9.59567,94.5944058609375,11.6607C94.4544064609375,12.0807,94.8743804609375,12.3607,95.2243804609375,12.2907C97.7093824609375,11.9057,100.1943824609375,11.8007,102.7143924609375,12.0107C102.9593824609375,12.0457,103.2743924609375,11.7657,103.2393924609375,11.4857C103.0293924609375,9.63067,103.5893924609375,8.02067,104.8843724609375,6.69067C105.37437246093751,6.20067,104.6043724609375,5.46567,104.1493824609375,5.95567C102.64438246093749,7.46067,101.94439246093751,9.38567,102.1893924609375,11.4857C102.3643924609375,11.3107,102.5393924609375,11.1357,102.7143924609375,10.9607C100.1243824609375,10.7507,97.5344024609375,10.8557,94.9444044609375,11.2757C95.1544044609375,11.4857,95.3643804609375,11.6957,95.5743824609375,11.9057C96.2043824609375,9.84067,96.8693824609375,7.74067,97.4993824609375,5.67567C97.7443824609375,4.83567,97.9894024609375,3.96067,98.3043924609375,3.12068C98.6543924609375,2.17568,100.4743924609375,-0.484317,101.4543924609375,1.68568C101.7693924609375,2.35068,102.67939246093749,1.82568,102.3993924609375,1.19568C102.3993924609375,1.19568,102.3993924609375,1.19568,102.3993924609375,1.19568Z" fill="#161616" fill-opacity="1"/></g></g></g><g><g><g><path d="M80.137998125,48.900671496582035C80.137998125,48.30567149658203,80.172988125,47.675671496582034,80.172988125,47.08067149658203C80.172988125,46.69567149658203,80.067978125,45.61067149658203,80.207978125,45.260671496582034C80.802978125,43.93067149658203,82.657998125,45.64567149658203,83.427998125,46.135671496582034C83.672998125,46.275671496582035,83.987998125,46.20567149658203,84.162998125,45.96067149658203C84.757998125,44.94567149658203,85.107998125,43.89567149658203,85.597998125,42.84566149658203C86.192998125,41.58567149658203,87.067998125,40.570661496582034,87.942998125,39.52066149658203C89.552978125,37.56067149658203,91.162978125,35.460661496582034,93.682978125,34.76066149658203C94.347978125,34.58566649658203,94.067978125,33.57066749658203,93.402978125,33.74566709658203C90.847978125,34.44566649658203,89.167978125,36.370671496582034,87.522998125,38.36567149658203C86.752998125,39.31067149658203,85.877998125,40.25567149658203,85.212998125,41.30567149658203C84.407998125,42.60067149658203,84.022998125,44.10567149658203,83.252998125,45.43567149658203C83.497998125,45.36567149658203,83.742998125,45.29567149658203,83.987998125,45.260671496582034C83.042998125,44.665671496582036,80.943008125,42.67067149658203,79.753006125,43.72067149658203C78.598006125,44.70067149658203,79.157990125,47.675671496582034,79.122990125,48.97067149658203C79.052990025,49.56567149658203,80.102998125,49.56567149658203,80.137998125,48.900671496582035C80.137998125,48.900671496582035,80.137998125,48.900671496582035,80.137998125,48.900671496582035Z" fill="#161616" fill-opacity="1"/></g></g></g><g><g><g><path d="M88.74958765625,46.94066539306641C88.11958465625,44.63066539306641,89.72958765625,42.95066539306641,91.86457765625,42.60066539306641C93.29957765625,42.3556653930664,94.41961765625,41.34066539306641,95.64460765625,40.6056653930664C98.89959765625,38.64566539306641,102.43459765625,37.17565539306641,106.07459765625,36.160655393066406C106.73959765625,35.985660393066404,106.45959765625,34.97066139306641,105.79459765625,35.14566099306641C103.58959765624999,35.740660393066406,101.45459765625,36.510665393066404,99.38959765625,37.455665393066404C97.14957765625,38.470665393066405,95.15460765625,39.80066539306641,93.05460765625,41.025665393066404C91.33961765625,42.00566539306641,89.65958765625,41.6206653930664,88.39958465625,43.3706653930664C87.55958405625,44.525665393066404,87.34958465625,45.8556653930664,87.69958465625,47.220665393066405C87.90958465625,47.85066539306641,88.92458765625,47.570665393066406,88.74958765625,46.94066539306641C88.74958765625,46.94066539306641,88.74958765625,46.94066539306641,88.74958765625,46.94066539306641Z" fill="#161616" fill-opacity="1"/></g></g></g></g></svg>